<svg width="25" height="25" viewBox="0 0 25 25" fill="none" xmlns="http://www.w3.org/2000/svg">
<path d="M20.625 3H8.375C7.21468 3 6.10188 3.52678 5.28141 4.46447C4.46094 5.40215 4 6.67392 4 8L4 16C4 17.3261 4.46094 18.5979 5.28141 19.5355C6.10188 20.4732 7.21468 21 8.375 21H20.625C21.1995 21 21.7684 20.8707 22.2992 20.6194C22.83 20.3681 23.3123 19.9998 23.7186 19.5355C24.1248 19.0712 24.4471 18.52 24.667 17.9134C24.8868 17.3068 25 16.6566 25 16V8C25 7.34339 24.8868 6.69321 24.667 6.08658C24.4471 5.47995 24.1248 4.92876 23.7186 4.46447C23.3123 4.00017 22.83 3.63188 22.2992 3.3806C21.7684 3.12933 21.1995 3 20.625 3ZM23.25 16C23.25 16.7956 22.9734 17.5587 22.4812 18.1213C21.9889 18.6839 21.3212 19 20.625 19H8.375C7.67881 19 7.01113 18.6839 6.51884 18.1213C6.02656 17.5587 5.75 16.7956 5.75 16V8C5.75 7.20435 6.02656 6.44129 6.51884 5.87868C7.01113 5.31607 7.67881 5 8.375 5H20.625C21.3212 5 21.9889 5.31607 22.4812 5.87868C22.9734 6.44129 23.25 7.20435 23.25 8V16Z" fill="#4A6572"/>
<path d="M1 8V20C1 22.2091 2.79086 24 5 24H15" stroke="#4A6572" stroke-width="2" stroke-linecap="round"/>
</svg>
