<svg width="26" height="26" viewBox="0 0 26 26" fill="none" xmlns="http://www.w3.org/2000/svg">
<g clip-path="url(#clip0_72:270)">
<path d="M7.58333 0H4.33333C3.18406 0 2.08186 0.456546 1.2692 1.2692C0.456546 2.08186 0 3.18406 0 4.33333L0 7.58333C0 8.73261 0.456546 9.83481 1.2692 10.6475C2.08186 11.4601 3.18406 11.9167 4.33333 11.9167H7.58333C8.73261 11.9167 9.83481 11.4601 10.6475 10.6475C11.4601 9.83481 11.9167 8.73261 11.9167 7.58333V4.33333C11.9167 3.18406 11.4601 2.08186 10.6475 1.2692C9.83481 0.456546 8.73261 0 7.58333 0V0ZM9.75 7.58333C9.75 8.15797 9.52173 8.70907 9.1154 9.1154C8.70907 9.52173 8.15797 9.75 7.58333 9.75H4.33333C3.7587 9.75 3.2076 9.52173 2.80127 9.1154C2.39494 8.70907 2.16667 8.15797 2.16667 7.58333V4.33333C2.16667 3.7587 2.39494 3.2076 2.80127 2.80127C3.2076 2.39494 3.7587 2.16667 4.33333 2.16667H7.58333C8.15797 2.16667 8.70907 2.39494 9.1154 2.80127C9.52173 3.2076 9.75 3.7587 9.75 4.33333V7.58333Z" fill="#4A6572"/>
<path d="M21.6667 0H18.4167C17.2674 0 16.1652 0.456546 15.3525 1.2692C14.5399 2.08186 14.0833 3.18406 14.0833 4.33333V7.58333C14.0833 8.73261 14.5399 9.83481 15.3525 10.6475C16.1652 11.4601 17.2674 11.9167 18.4167 11.9167H21.6667C22.8159 11.9167 23.9181 11.4601 24.7308 10.6475C25.5435 9.83481 26 8.73261 26 7.58333V4.33333C26 3.18406 25.5435 2.08186 24.7308 1.2692C23.9181 0.456546 22.8159 0 21.6667 0V0ZM23.8333 7.58333C23.8333 8.15797 23.6051 8.70907 23.1987 9.1154C22.7924 9.52173 22.2413 9.75 21.6667 9.75H18.4167C17.842 9.75 17.2909 9.52173 16.8846 9.1154C16.4783 8.70907 16.25 8.15797 16.25 7.58333V4.33333C16.25 3.7587 16.4783 3.2076 16.8846 2.80127C17.2909 2.39494 17.842 2.16667 18.4167 2.16667H21.6667C22.2413 2.16667 22.7924 2.39494 23.1987 2.80127C23.6051 3.2076 23.8333 3.7587 23.8333 4.33333V7.58333Z" fill="#4A6572"/>
<path d="M7.58333 14.0833H4.33333C3.18406 14.0833 2.08186 14.5399 1.2692 15.3525C0.456546 16.1652 0 17.2674 0 18.4166L0 21.6666C0 22.8159 0.456546 23.9181 1.2692 24.7308C2.08186 25.5434 3.18406 26 4.33333 26H7.58333C8.7326 26 9.83481 25.5434 10.6475 24.7308C11.4601 23.9181 11.9167 22.8159 11.9167 21.6666V18.4166C11.9167 17.2674 11.4601 16.1652 10.6475 15.3525C9.83481 14.5399 8.7326 14.0833 7.58333 14.0833ZM9.75 21.6666C9.75 22.2413 9.52173 22.7924 9.1154 23.1987C8.70907 23.605 8.15797 23.8333 7.58333 23.8333H4.33333C3.7587 23.8333 3.2076 23.605 2.80127 23.1987C2.39494 22.7924 2.16667 22.2413 2.16667 21.6666V18.4166C2.16667 17.842 2.39494 17.2909 2.80127 16.8846C3.2076 16.4783 3.7587 16.25 4.33333 16.25H7.58333C8.15797 16.25 8.70907 16.4783 9.1154 16.8846C9.52173 17.2909 9.75 17.842 9.75 18.4166V21.6666Z" fill="#4A6572"/>
<path d="M21.6667 14.0833H18.4167C17.2674 14.0833 16.1652 14.5399 15.3525 15.3525C14.5399 16.1652 14.0833 17.2674 14.0833 18.4166V21.6666C14.0833 22.8159 14.5399 23.9181 15.3525 24.7308C16.1652 25.5434 17.2674 26 18.4167 26H21.6667C22.8159 26 23.9181 25.5434 24.7308 24.7308C25.5435 23.9181 26 22.8159 26 21.6666V18.4166C26 17.2674 25.5435 16.1652 24.7308 15.3525C23.9181 14.5399 22.8159 14.0833 21.6667 14.0833ZM23.8333 21.6666C23.8333 22.2413 23.6051 22.7924 23.1987 23.1987C22.7924 23.605 22.2413 23.8333 21.6667 23.8333H18.4167C17.842 23.8333 17.2909 23.605 16.8846 23.1987C16.4783 22.7924 16.25 22.2413 16.25 21.6666V18.4166C16.25 17.842 16.4783 17.2909 16.8846 16.8846C17.2909 16.4783 17.842 16.25 18.4167 16.25H21.6667C22.2413 16.25 22.7924 16.4783 23.1987 16.8846C23.6051 17.2909 23.8333 17.842 23.8333 18.4166V21.6666Z" fill="#4A6572"/>
</g>
<defs>
<clipPath id="clip0_72:270">
<rect width="26" height="26" fill="white"/>
</clipPath>
</defs>
</svg>
